<svg width="27" height="27" viewBox="0 0 27 27" fill="none" xmlns="http://www.w3.org/2000/svg">
<path fill-rule="evenodd" clip-rule="evenodd" d="M13.5726 0.443359C6.43909 0.443359 0.65625 6.2262 0.65625 13.3597C0.65625 20.4932 6.43909 26.276 13.5726 26.276C20.7061 26.276 26.4889 20.4932 26.4889 13.3597C26.4889 6.2262 20.7061 0.443359 13.5726 0.443359ZM10.733 6.51283C11.4678 6.47939 11.7026 6.47121 13.5735 6.47121H13.5713C15.4428 6.47121 15.6767 6.47939 16.4115 6.51283C17.1449 6.54641 17.6457 6.66252 18.0849 6.83287C18.5384 7.00868 18.9216 7.24405 19.3048 7.62724C19.688 8.01014 19.9233 8.39447 20.0999 8.84755C20.2692 9.28557 20.3855 9.78615 20.4199 10.5195C20.4529 11.2543 20.4615 11.4891 20.4615 13.36C20.4615 15.2309 20.4529 15.4651 20.4199 16.1999C20.3855 16.933 20.2692 17.4337 20.0999 17.8719C19.9233 18.3248 19.688 18.7091 19.3048 19.092C18.922 19.4752 18.5383 19.7112 18.0853 19.8871C17.647 20.0575 17.1459 20.1736 16.4125 20.2072C15.6777 20.2406 15.4436 20.2488 13.5726 20.2488C11.7019 20.2488 11.4672 20.2406 10.7324 20.2072C9.99918 20.1736 9.49845 20.0575 9.06015 19.8871C8.60736 19.7112 8.22302 19.4752 7.84026 19.092C7.45722 18.7091 7.22185 18.3248 7.04576 17.8717C6.87555 17.4337 6.75944 16.9331 6.72572 16.1998C6.69242 15.4649 6.6841 15.2309 6.6841 13.36C6.6841 11.4891 6.69271 11.2542 6.72557 10.5194C6.75858 9.78629 6.87483 9.28557 7.04561 8.84741C7.22214 8.39447 7.45751 8.01014 7.84069 7.62724C8.2236 7.24419 8.60793 7.00882 9.06101 6.83287C9.49903 6.66252 9.99961 6.54641 10.733 6.51283Z" fill="#0857C3"/>
<path fill-rule="evenodd" clip-rule="evenodd" d="M12.9554 7.7126C13.0753 7.71241 13.2044 7.71247 13.3437 7.71253L13.5733 7.7126C15.4126 7.7126 15.6306 7.7192 16.357 7.75221C17.0286 7.78292 17.3932 7.89515 17.636 7.98944C17.9575 8.1143 18.1867 8.26356 18.4276 8.50467C18.6687 8.74577 18.818 8.9754 18.9431 9.29688C19.0374 9.53942 19.1498 9.90395 19.1804 10.5756C19.2134 11.3018 19.2206 11.5199 19.2206 13.3584C19.2206 15.1968 19.2134 15.415 19.1804 16.1412C19.1497 16.8128 19.0374 17.1774 18.9431 17.4199C18.8183 17.7414 18.6687 17.9703 18.4276 18.2112C18.1865 18.4524 17.9576 18.6016 17.636 18.7265C17.3934 18.8212 17.0286 18.9331 16.357 18.9638C15.6308 18.9969 15.4126 19.004 13.5733 19.004C11.7339 19.004 11.5159 18.9969 10.7897 18.9638C10.118 18.9328 9.7535 18.8206 9.51053 18.7263C9.18905 18.6015 8.95943 18.4522 8.71832 18.2111C8.47721 17.97 8.32795 17.7409 8.20281 17.4193C8.10852 17.1768 7.99614 16.8123 7.96557 16.1406C7.93257 15.4144 7.92596 15.1963 7.92596 13.3567C7.92596 11.5171 7.93257 11.3001 7.96557 10.5739C7.99629 9.90223 8.10852 9.5377 8.20281 9.29487C8.32767 8.97339 8.47721 8.74376 8.71832 8.50266C8.95943 8.26155 9.18905 8.11229 9.51053 7.98715C9.75336 7.89242 10.118 7.78048 10.7897 7.74963C11.4252 7.72092 11.6715 7.71231 12.9554 7.71088V7.7126ZM17.2507 8.85646C16.7943 8.85646 16.4241 9.2263 16.4241 9.68283C16.4241 10.1392 16.7943 10.5095 17.2507 10.5095C17.7071 10.5095 18.0774 10.1392 18.0774 9.68283C18.0774 9.22645 17.7071 8.85617 17.2507 8.85617V8.85646ZM10.0355 13.36C10.0355 11.4063 11.6194 9.82237 13.573 9.82229C15.5267 9.82229 17.1103 11.4063 17.1103 13.36C17.1103 15.3137 15.5269 16.8969 13.5732 16.8969C11.6195 16.8969 10.0355 15.3137 10.0355 13.36Z" fill="#0857C3"/>
<path d="M13.5734 11.0636C14.8415 11.0636 15.8696 12.0916 15.8696 13.3599C15.8696 14.628 14.8415 15.6562 13.5734 15.6562C12.3051 15.6562 11.2771 14.628 11.2771 13.3599C11.2771 12.0916 12.3051 11.0636 13.5734 11.0636Z" fill="#0857C3"/>
</svg>
