<svg width="27" height="27" viewBox="0 0 27 27" fill="none" xmlns="http://www.w3.org/2000/svg">
<path fill-rule="evenodd" clip-rule="evenodd" d="M13.2074 0.869141C6.07386 0.869141 0.291016 6.65198 0.291016 13.7855C0.291016 20.919 6.07386 26.7018 13.2074 26.7018C20.3408 26.7018 26.1237 20.919 26.1237 13.7855C26.1237 6.65198 20.3408 0.869141 13.2074 0.869141ZM14.2586 17.8629C14.1312 17.9972 13.8826 18.0243 13.8826 18.0243H13.0591C13.0591 18.0243 11.2424 18.1314 9.64203 16.4963C7.89675 14.7124 6.35564 11.1729 6.35564 11.1729C6.35564 11.1729 6.2667 10.9408 6.36306 10.829C6.47155 10.7027 6.76737 10.6947 6.76737 10.6947L8.7357 10.6822C8.7357 10.6822 8.92101 10.7119 9.05376 10.8078C9.1636 10.8872 9.22492 11.0347 9.22492 11.0347C9.22492 11.0347 9.54297 11.8245 9.96413 12.5389C10.7869 13.9339 11.1697 14.2388 11.4486 14.0893C11.8556 13.8717 11.7337 12.1175 11.7337 12.1175C11.7337 12.1175 11.7411 11.4812 11.5288 11.1974C11.3644 10.9778 11.0544 10.9137 10.9176 10.8958C10.8065 10.8812 10.9884 10.6286 11.2242 10.5155C11.5787 10.3455 12.204 10.3356 12.9432 10.3428C13.5194 10.3488 13.6852 10.3838 13.9102 10.4374C14.4326 10.5611 14.4163 10.9577 14.3811 11.8135C14.3706 12.0694 14.3583 12.3664 14.3583 12.7095C14.3583 12.7866 14.356 12.8688 14.3537 12.9533C14.3415 13.3918 14.3275 13.8938 14.6218 14.0807C14.7728 14.1759 15.1414 14.0946 16.0639 12.5574C16.5012 11.8285 16.8287 10.9719 16.8287 10.9719C16.8287 10.9719 16.9008 10.8191 17.012 10.7536C17.1259 10.6868 17.2795 10.7073 17.2795 10.7073L19.3509 10.6947C19.3509 10.6947 19.9736 10.6213 20.074 10.8978C20.1798 11.1868 19.8415 11.8628 18.9951 12.9701C18.1923 14.0208 17.8016 14.4076 17.8374 14.7497C17.8637 14.9997 18.1176 15.2258 18.605 15.6695C19.6223 16.5967 19.895 17.0845 19.9606 17.2017C19.966 17.2114 19.97 17.2186 19.9729 17.2233C20.4291 17.9661 19.4668 18.0243 19.4668 18.0243L17.6265 18.0494C17.6265 18.0494 17.2317 18.1261 16.7114 17.7756C16.4389 17.5921 16.1726 17.2924 15.919 17.007C15.5317 16.5711 15.1739 16.1684 14.8684 16.2635C14.3556 16.4236 14.3711 17.5077 14.3711 17.5077C14.3711 17.5077 14.3752 17.7399 14.2586 17.8629Z" fill="#0857C3"/>
</svg>
