<svg width="27" height="27" viewBox="0 0 27 27" fill="none" xmlns="http://www.w3.org/2000/svg">
<path fill-rule="evenodd" clip-rule="evenodd" d="M13.389 0.443359C6.2555 0.443359 0.472656 6.2262 0.472656 13.3597C0.472656 20.4932 6.2555 26.276 13.389 26.276C20.5225 26.276 26.3053 20.4932 26.3053 13.3597C26.3053 6.2262 20.5225 0.443359 13.389 0.443359ZM18.7718 8.91959C19.3646 9.08226 19.8315 9.56157 19.9899 10.1703C20.2778 11.2734 20.2778 13.5752 20.2778 13.5752C20.2778 13.5752 20.2778 15.8769 19.9899 16.9802C19.8315 17.5888 19.3646 18.0682 18.7718 18.2309C17.6974 18.5265 13.3891 18.5265 13.3891 18.5265C13.3891 18.5265 9.08076 18.5265 8.00635 18.2309C7.41353 18.0682 6.94667 17.5888 6.78823 16.9802C6.50039 15.8769 6.50039 13.5752 6.50039 13.5752C6.50039 13.5752 6.50039 11.2734 6.78823 10.1703C6.94667 9.56157 7.41353 9.08226 8.00635 8.91959C9.08076 8.62395 13.3891 8.62395 13.3891 8.62395C13.3891 8.62395 17.6974 8.62395 18.7718 8.91959Z" fill="#0857C3"/>
<path d="M12.0974 15.9435V11.638L15.5418 13.7909L12.0974 15.9435Z" fill="#0857C3"/>
</svg>
